<?xml version="1.0" standalone="no"?>
<!DOCTYPE svg PUBLIC "-//W3C//DTD SVG 20010904//EN"
 "http://www.w3.org/TR/2001/REC-SVG-20010904/DTD/svg10.dtd">
<svg version="1.0" xmlns="http://www.w3.org/2000/svg"
 width="512.000000pt" height="512.000000pt" viewBox="0 0 512.000000 512.000000"
 preserveAspectRatio="xMidYMid meet">
<metadata>
Created by potrace 1.14, written by Peter Selinger 2001-2017
</metadata>
<g transform="translate(0.000000,512.000000) scale(0.100000,-0.100000)"
fill="#000000" stroke="none">
<path d="M1447 4164 c-1 -1 -56 -4 -122 -8 -66 -3 -137 -11 -157 -16 -145 -41
-174 -238 -49 -324 65 -45 253 -88 476 -111 167 -16 145 -15 390 -29 50 -3
133 -8 187 -11 110 -6 133 -12 168 -50 l25 -27 1 -496 c1 -273 4 -513 7 -532
3 -19 9 -82 12 -140 6 -104 9 -140 19 -235 5 -47 10 -92 22 -210 2 -27 7 -67
9 -87 3 -21 7 -55 10 -75 6 -56 29 -227 41 -318 2 -22 7 -56 9 -75 2 -19 7
-53 11 -75 3 -22 7 -51 9 -65 2 -14 9 -56 15 -95 6 -38 14 -88 16 -110 20
-148 61 -205 152 -205 63 0 108 61 118 160 2 25 6 62 8 82 8 63 19 319 19 423
0 98 -13 601 -18 720 -4 76 -16 375 -20 480 -2 44 -6 134 -9 200 -4 66 -9 166
-12 223 -9 182 -7 366 5 409 7 25 21 48 34 55 16 10 111 13 377 14 354 0 376
2 480 31 78 22 125 73 129 138 3 59 -12 96 -47 122 -39 29 -144 61 -252 77
-223 32 -331 47 -415 56 -55 6 -116 13 -135 15 -19 2 -64 7 -100 10 -36 3 -81
8 -100 10 -19 2 -71 7 -115 10 -44 3 -105 8 -135 10 -134 11 -182 15 -285 21
-60 3 -130 7 -155 9 -78 6 -619 22 -623 19z"/>
</g>
</svg>
